HIERARCHY
ROOT Hips
{
  OFFSET -331.093 83.8371 -317.828
  CHANNELS 6 Xposition Yposition Zposition Zrotation Xrotation Yrotation
  JOINT LeftUpLeg
  {
    OFFSET 8.64259 1.95398 -2.38835
    CHANNELS 3 Zrotation Xrotation Yrotation
    JOINT LeftLeg
    {
      OFFSET 43.7702 0 0
      CHANNELS 3 Zrotation Xrotation Yrotation
      JOINT LeftFoot
      {
        OFFSET 40.6238 0 0
        CHANNELS 3 Zrotation Xrotation Yrotation
        JOINT LeftToeBase
        {
          OFFSET 12.7242 0 0
          CHANNELS 3 Zrotation Xrotation Yrotation
          End Site
          {
            OFFSET 0 0 0
          }
        }
      }
    }
  }
  JOINT RightUpLeg
  {
    OFFSET -8.2249 1.95398 -2.59336
    CHANNELS 3 Zrotation Xrotation Yrotation
    JOINT RightLeg
    {
      OFFSET 43.5653 0 0
      CHANNELS 3 Zrotation Xrotation Yrotation
      JOINT RightFoot
      {
        OFFSET 40.6238 0 0
        CHANNELS 3 Zrotation Xrotation Yrotation
        JOINT RightToeBase
        {
          OFFSET 12.7242 0 0
          CHANNELS 3 Zrotation Xrotation Yrotation
          End Site
          {
            OFFSET 0 0 0
          }
        }
      }
    }
  }
  JOINT Spine
  {
    OFFSET 0.165834 0.87714 6.61349
    CHANNELS 3 Zrotation Xrotation Yrotation
    JOINT Spine1
    {
      OFFSET 7.38963 1.71661e-005 0
      CHANNELS 3 Zrotation Xrotation Yrotation
      JOINT Spine2
      {
        OFFSET 11.9445 1.14441e-005 0
        CHANNELS 3 Zrotation Xrotation Yrotation
        JOINT Spine3
        {
          OFFSET 14.7254 4.19617e-005 0
          CHANNELS 3 Zrotation Xrotation Yrotation
          JOINT Spine4
          {
            OFFSET 10.9679 0 0
            CHANNELS 3 Zrotation Xrotation Yrotation
            JOINT RightShoulder
            {
              OFFSET 2.46616 -1.6653 3.69651
              CHANNELS 3 Zrotation Xrotation Yrotation
              JOINT RightArm
              {
                OFFSET 13.0012 0 0
                CHANNELS 3 Zrotation Xrotation Yrotation
                JOINT RightForeArm
                {
                  OFFSET 28.7848 1.62311e-005 0
                  CHANNELS 3 Zrotation Xrotation Yrotation
                  JOINT RightHand
                  {
                    OFFSET 26.5688 1.62095e-005 0
                    CHANNELS 3 Zrotation Xrotation Yrotation
                    End Site
                    {
                      OFFSET 0 0 0
                    }
                  }
                }
              }
            }
            JOINT LeftShoulder
            {
              OFFSET 2.38034 -1.29275 -3.7523
              CHANNELS 3 Zrotation Xrotation Yrotation
              JOINT LeftArm
              {
                OFFSET 16.3182 6.07031e-005 0
                CHANNELS 3 Zrotation Xrotation Yrotation
                JOINT LeftForeArm
                {
                  OFFSET 27.0901 0 0
                  CHANNELS 3 Zrotation Xrotation Yrotation
                  JOINT LeftHand
                  {
                    OFFSET 24.5451 1.51738e-005 0
                    CHANNELS 3 Zrotation Xrotation Yrotation
                    End Site
                    {
                      OFFSET 0 0 0
                    }
                  }
                }
              }
            }
            JOINT Neck
            {
              OFFSET 5.0226 -0.0266342 0
              CHANNELS 3 Zrotation Xrotation Yrotation
              JOINT Head
              {
                OFFSET 6.69364 2.86102e-005 0
                CHANNELS 3 Zrotation Xrotation Yrotation
                End Site
                {
                  OFFSET 0 0 0
                }
              }
            }
          }
        }
      }
    }
  }
}
MOTION
Frames:	12
Frame Time:	0.0416667
-19.1937 98.9755 -154.961 -62.064 -82.9799 -62.6328 -176.143 8.20221 88.923 -15.9307 5.71145 -0.437335 67.1541 5.46012 3.7209 29.3075 1.29952 3.95203 174.678 7.30974 92.1644 -16.2785 -6.90038 -3.05915 69.2469 -4.43889 -2.34571 28.9917 -0.27713 -2.27931 -0.340236 6.91772 -90.1911 13.0376 -0.767164 -0.288146 1.36686 -0.779104 -0.254107 -21.1694 -0.64511 -0.505405 -1.15676 -0.645103 -0.505407 90.6494 -42.3063 -101.28 32.1089 -17.2013 3.64707 -7.84266 -11.1548 -40.0475 -6.40045 -0.335518 -0.565968 -96.4576 -50.041 69.692 -22.1893 11.8725 -1.47162 5.47329 14.7105 -34.3459 11.4142 1.27031 6.85066 3.84102 2.54533 4.02105 0.620846 1.8165 0.452492 
-19.2029 99.1034 -154.913 -64.8555 -82.7161 -65.117 -175.225 7.14115 89.7298 -14.4338 6.05155 -1.13671 67.5759 4.81105 2.20783 29.0378 1.4027 5.30607 175 6.48567 92.5293 -15.0198 -6.79346 -3.17678 68.7225 -4.47923 -2.34585 28.796 -0.207361 -1.75583 -0.235292 6.87319 -90.1729 13.1269 -0.550192 -0.277807 1.45607 -0.561892 -0.253327 -21.0795 -0.441267 -0.430321 -1.06687 -0.441275 -0.430334 90.7756 -43.1425 -100.851 31.4251 -16.9808 3.20001 -6.05786 -12.0479 -37.8814 -7.50104 -0.447361 0.892815 -96.7234 -49.8117 69.2317 -21.7506 12.2634 -2.15356 4.60384 16.2498 -31.4539 12.1179 1.24924 6.13679 3.71585 2.06655 3.44372 -0.409749 1.44735 0.479381 
-19.1106 99.1798 -154.964 -64.4514 -83.1775 -64.9304 -175.485 6.52219 89.4523 -13.3826 6.34522 -1.0245 66.7969 4.0625 2.31841 29.269 1.45823 4.74906 174.742 6.29794 92.2779 -14.7393 -6.11926 -3.06537 68.4693 -4.37212 -2.29501 28.9167 -0.113526 -0.926384 -0.274986 6.84894 -90.0856 13.1759 -0.586911 -0.0982606 1.5051 -0.590672 -0.0723497 -21.0309 -0.530252 -0.270111 -1.01828 -0.530255 -0.270124 90.7079 -43.2186 -100.943 32.5899 -15.5168 4.17417 -6.95763 -11.7692 -38.6823 -7.14094 -0.641026 5.28199 -95.9168 -49.0115 70.1608 -22.2155 11.874 -2.69314 4.4587 17.6521 -29.5928 11.5592 1.10756 5.40789 3.56904 2.02848 2.6703 -0.494854 1.54828 0.678112 
-19.0406 99.1749 -155.336 -63.9429 -83.6052 -64.4778 -175.743 6.95586 89.2406 -13.9045 6.57715 -0.859439 66.4139 4.05574 2.77801 29.7228 1.61228 3.87589 174.769 6.50086 92.2663 -14.8832 -5.39036 -3.06937 68.4011 -4.36051 -2.28906 29.0259 -0.0591674 -0.458091 -0.272281 6.85326 -90.0396 13.1674 -0.559391 -0.00975501 1.4966 -0.559283 0.014866 -21.0394 -0.530602 -0.177438 -1.0268 -0.530597 -0.177431 90.7841 -42.5025 -101.003 34.0791 -14.6704 4.04265 -6.17969 -11.3091 -36.4972 -8.1135 -0.736713 5.52311 -95.9518 -48.7292 70.0198 -22.1549 11.1519 -2.76643 4.60702 18.3808 -28.86 10.7661 1.00631 5.13392 3.93624 1.81807 2.45802 -0.698191 1.36695 0.575433 
-18.9906 99.156 -155.775 -71.1933 -83.9145 -72.0998 -175.653 6.40125 88.964 -13.9375 6.57684 -1.02164 66.3411 3.95843 2.51787 29.2565 1.20771 3.73477 174.515 6.50329 91.8185 -16.0298 -5.72525 -3.1608 68.9299 -4.46843 -2.34919 28.2051 -0.0391396 -0.43518 -0.232078 6.94804 -89.9678 12.9781 -0.445258 0.118547 1.30726 -0.439616 0.138026 -21.2285 -0.460306 -0.0207517 -1.21586 -0.460309 -0.0207618 90.786 -41.8186 -101.179 35.6521 -13.3581 4.86438 -6.79181 -10.5421 -36.9217 -8.27066 -0.752258 5.52537 -96.3016 -49.0384 69.6012 -21.5051 11.248 -2.40239 4.23513 17.2508 -28.9854 10.9911 1.00808 4.98712 4.44305 1.5441 2.59866 -0.936448 1.057 0.240274 
-18.9109 99.2118 -156.111 -76.2111 -83.8141 -77.1619 -175.632 5.88983 88.8954 -13.6479 6.35815 -0.996693 66.1814 3.78786 2.36453 29.1459 0.93433 2.93451 174.476 6.18423 91.7222 -15.8757 -6.00219 -3.24839 68.5372 -4.28583 -2.26518 28.7318 -0.0589611 -0.508632 -0.162521 6.99702 -89.9149 12.88 -0.281899 0.204084 1.20911 -0.272635 0.216289 -21.3262 -0.3302 0.109933 -1.31359 -0.330195 0.109928 90.6748 -41.711 -101.395 36.1494 -13.4915 5.2533 -6.36746 -9.83111 -37.2415 -8.0395 -0.679644 4.65226 -96.5644 -49.422 69.339 -20.2811 11.2869 -1.85001 4.35378 17.0449 -29.6275 10.036 0.900051 4.72452 4.59805 1.24581 2.89798 -0.775584 0.699489 -0.470618 
-18.8999 99.2072 -156.406 -77.0891 -83.4583 -77.9183 -175.514 6.15198 89.031 -13.8946 6.30379 -1.09522 66.2155 3.95376 2.4818 29.3375 1.0883 2.9493 174.533 6.30469 91.8343 -15.7025 -6.07867 -3.19449 68.4455 -4.24784 -2.2466 28.6003 -0.0177201 -0.180688 -0.0747134 7.01676 -89.8916 12.8404 -0.096419 0.228229 1.16945 -0.0862837 0.232244 -21.3656 -0.160555 0.188699 -1.35298 -0.160559 0.188691 90.6944 -41.8348 -101.329 36.0016 -13.7107 5.27184 -5.47106 -8.78483 -37.4454 -6.94761 -0.544115 3.71146 -96.7008 -49.8094 69.2632 -19.1748 11.5137 -1.66208 4.18816 16.3427 -30.1883 10.0241 0.891783 4.65838 4.77746 1.09182 3.0378 -0.530474 0.512461 -0.890444 
-18.7971 99.1695 -156.585 -76.1709 -83.3265 -76.8942 -175.617 6.71693 89.0333 -14.5629 5.94317 -0.985082 66.2515 3.7737 2.36626 29.7733 1.29655 2.39597 174.609 6.89206 91.8833 -16.3526 -6.26813 -3.1924 68.3492 -4.04659 -2.16356 28.7415 -0.0765016 -0.654903 -0.0409801 7.00128 -89.8805 12.8712 -0.0240251 0.241876 1.20025 -0.0133597 0.242684 -21.3347 -0.0956179 0.223466 -1.3221 -0.0956121 0.223466 90.5596 -42.0381 -101.501 35.4457 -14.7053 5.22765 -5.37074 -9.17401 -37.8253 -6.26641 -0.445967 2.62107 -96.7564 -50.1499 69.2916 -18.8108 11.3849 -0.955084 4.39512 15.7236 -31.1091 10.9364 1.00706 5.01431 4.62635 0.965057 3.22997 -0.260212 0.351175 -1.15082 
-18.7316 99.1837 -156.66 -80.0717 -83.3686 -80.8482 -175.52 6.35086 89.0129 -14.5581 5.95491 -1.04815 66.0518 3.39823 2.09607 30.2861 1.64061 2.17442 174.547 6.457 91.778 -16.3187 -6.44925 -3.28458 68.3136 -4.01145 -2.14785 28.7221 -0.0949526 -0.816535 -0.0233594 7.03131 -89.8623 12.8111 0.0195495 0.272898 1.14015 0.0315455 0.271774 -21.3948 -0.0633773 0.266165 -1.38214 -0.0633705 0.266161 90.6543 -41.8864 -101.383 35.1998 -16.313 5.29227 -6.37984 -10.7195 -39.2346 -5.66912 -0.448333 3.52869 -96.5732 -49.9663 69.4998 -19.5994 10.8686 -0.357877 3.75822 14.3835 -30.8057 13.3488 1.1947 4.91905 4.36637 0.99779 3.32667 -0.528341 0.376092 -1.18666 
-18.6969 99.2223 -156.798 -81.4479 -83.3282 -82.2809 -175.583 6.16618 88.9081 -14.3973 5.7268 -0.997166 66.1604 3.51335 2.09148 29.4854 0.98148 2.00299 174.408 6.25675 91.6554 -15.9716 -6.49349 -3.21282 68.1977 -4.01374 -2.14455 28.535 -0.0889797 -0.805842 -0.0157767 7.03529 -89.8506 12.8032 0.0402197 0.293898 1.13219 0.0531165 0.291836 -21.4027 -0.0499665 0.292401 -1.39006 -0.0499659 0.292403 90.8733 -41.3861 -101.146 35.5093 -16.9466 5.16966 -7.24168 -11.5942 -39.0331 -5.71532 -0.403976 2.08636 -96.5256 -49.9429 69.5622 -20.3223 10.0883 0.485148 3.77871 13.4686 -31.2307 14.2203 1.27756 4.99187 4.34031 1.01265 3.40778 -0.791813 0.379052 -1.26561 
-18.7115 99.2153 -156.93 -83.6098 -83.2666 -84.4609 -175.596 5.95014 88.8679 -14.3173 5.8258 -0.987237 65.9833 3.64662 2.42923 29.7198 1.16236 2.00436 174.517 6.03447 91.6882 -15.8879 -6.48749 -3.34569 68.2753 -4.07067 -2.16852 28.2881 -0.0938868 -0.901024 -0.0256063 7.04518 -89.8362 12.7834 0.0275171 0.324047 1.11238 0.0417501 0.32252 -21.4225 -0.0711465 0.317345 -1.40981 -0.0711514 0.317331 90.7673 -41.3896 -101.325 35.3933 -17.3967 5.21717 -7.78998 -12.229 -39.7433 -6.48264 -0.479981 2.67818 -96.1476 -49.7268 70.0457 -21.1735 9.84288 1.12792 3.88224 13.3161 -31.4551 14.2394 1.30827 5.19162 4.10786 1.09915 3.18901 -0.903329 0.51255 -1.09327 
-18.7093 99.2233 -157.018 -84.5529 -83.3806 -85.4184 -175.599 5.81606 88.8503 -14.109 6.16393 -1.00582 65.6789 3.6306 2.82752 30.1255 1.49311 2.07911 174.563 6.0007 91.6971 -15.9582 -6.33247 -3.40298 68.1659 -3.99564 -2.13432 28.5156 -0.0785071 -0.718762 -0.036095 7.04764 -89.8455 12.7785 0.00226309 0.308578 1.10752 0.0158349 0.308164 -21.4274 -0.0905813 0.294988 -1.41471 -0.0905842 0.294982 90.7808 -41.2113 -101.35 35.4219 -17.347 5.27571 -8.10708 -11.9254 -40.1037 -7.26128 -0.570154 3.57554 -96.389 -49.8727 69.7391 -21.7044 9.46701 1.56986 4.01632 13.5113 -31.351 14.0946 1.28614 5.1228 3.86964 1.04842 3.53256 -0.914702 0.407079 -1.42431 
